<svg aria-hidden="true" style="position: absolute; width: 0; height: 0; overflow: hidden;"
    version="1.1" xmlns="http://www.w3.org/2000/svg">
    <defs>
        <symbol id="arrow-scroll-right" viewBox="0 0 11 14">
            <path d="M0 14V0L11 7L0 14Z" fill="currentColor" />
        </symbol>

        <symbol id="arrow-scroll-left" viewBox="0 0 11 14">
            <path d="M11 0L11 14L0 7L11 0Z" fill="currentColor" />
        </symbol>

        <symbol id="arrow" viewBox="0 0 16 16">
            <path d="M0 9L12.17 9L6.58 14.59L8 16L16 8L8 0L6.59 1.41L12.17 7L0 7L0 9Z"
                fill="currentColor" />
        </symbol>
        <symbol id="link" viewBox="0 0 18 18" fill="none">
            <path d="M8 1H1V17H17V10M6 12L17 1M17 1H12M17 1V6" stroke="currentColor"
                stroke-width="2" stroke-miterlimit="16" stroke-linecap="square" />
        </symbol>
        <symbol id="done" viewBox="0 0 12 9">
            <path
                d="M4.36668 9.00006L0.566681 5.20007L1.51668 4.25007L4.36668 7.10006L10.4833 0.983398L11.4333 1.9334L4.36668 9.00006Z"
                fill="currentColor" />
        </symbol>
        <symbol id="x" viewBox="0 0 12 12">
            <path
                d="M11.6569 1.75541L7.41429 5.99805L11.6569 10.2407L10.2427 11.6549L6.00008 7.41226L1.75744 11.6549L0.343227 10.2407L4.58587 5.99805L0.343227 1.75541L1.75744 0.341193L6.00008 4.58383L10.2427 0.341193L11.6569 1.75541Z"
                fill="currentColor" />
        </symbol>
        <symbol id="star" viewBox="0 0 10 10" fill="none">
            <path
                d="M4.67188 0.219727C4.76456 0.0348553 4.98978 -0.04151 5.1748 0.0498047C5.24853 0.0860824 5.30838 0.14604 5.34473 0.219727L6.6748 2.91699L9.65039 3.34863C9.85526 3.37924 9.99834 3.56949 9.9668 3.77441C9.95508 3.85645 9.91602 3.93184 9.85742 3.98926L7.70508 6.08789L8.21289 9.05176C8.2479 9.25558 8.11106 9.44826 7.90723 9.4834C7.8265 9.49741 7.74248 9.48483 7.66992 9.44629L5.00781 8.04688L2.34668 9.44629C2.28485 9.4789 2.21524 9.49325 2.14551 9.48828C2.07572 9.4833 2.00876 9.45908 1.95215 9.41797C1.89556 9.37686 1.85151 9.32067 1.8252 9.25586C1.79899 9.19121 1.79091 9.12051 1.80273 9.05176L2.31152 6.08789L0.15918 3.98926C0.0878944 3.91977 0.0472169 3.82415 0.0458984 3.72461C0.0446778 3.6252 0.0830083 3.52927 0.152344 3.45801C0.209705 3.39958 0.284341 3.36036 0.366211 3.34863L3.3418 2.91699L4.67188 0.219727Z"
                fill="currentColor" />
        </symbol>
    </defs>
</svg>